<?xml version="1.0" encoding="iso-8859-1"?>
<!-- Generator: Adobe Illustrator 16.0.0, SVG Export Plug-In . SVG Version: 6.00 Build 0)  -->
<!DOCTYPE svg PUBLIC "-//W3C//DTD SVG 1.1//EN" "http://www.w3.org/Graphics/SVG/1.1/DTD/svg11.dtd">
<svg xmlns="http://www.w3.org/2000/svg" xmlns:xlink="http://www.w3.org/1999/xlink" version="1.1" id="Capa_1" x="0px" y="0px" width="512px" height="512px" viewBox="0 0 612 612" style="enable-background:new 0 0 612 612;" xml:space="preserve">
<g>
	<g>
		<path d="M600.395,65.515c-7.714-7.883-16.92-11.945-28.2-11.945H40.138c-11.28,0-20.812,4.062-28.525,11.945    C4.062,73.221,0,82.76,0,93.708v424.584c0,10.948,3.899,20.649,11.613,28.526c7.543,7.713,17.245,11.612,28.525,11.612h532.056    c11.28,0,20.649-3.899,28.2-11.612C608.107,538.935,612,529.24,612,518.292V93.708C612,82.76,607.938,73.221,600.395,65.515z     M575.514,518.292c0,2.321-0.991,3.319-3.319,3.319H40.138c-2.321,0-3.319-0.998-3.319-3.319V224.064h538.694V518.292z     M575.514,187.578H36.819v-93.87c0-2.321,0.998-3.319,3.319-3.319h532.056c2.328,0,3.319,0.998,3.319,3.319V187.578    L575.514,187.578z" fill="#ff6347"/>
		<path d="M164.862,126.875c-7.126,6.801-6.97,18.576,0,26.205c7.629,6.963,19.404,7.126,26.205,0    c7.133-7.473,6.963-19.241,0-26.205C184.096,119.912,172.335,119.742,164.862,126.875z" fill="#ff6347"/>
		<path d="M119.417,126.875c-6.963,6.963-7.133,18.732,0,26.205c6.801,7.126,18.909,6.963,25.872,0    c7.628-7.628,7.473-19.071,0-26.205C138.162,120.075,126.38,119.912,119.417,126.875z" fill="#ff6347"/>
		<path d="M73.971,126.875c-6.963,6.963-7.133,18.732,0,26.205c6.8,7.126,18.908,6.963,25.872,0c7.628-7.628,7.473-19.071,0-26.205    C92.717,120.075,80.941,119.912,73.971,126.875z" fill="#ff6347"/>
		<path d="M333.701,435.362c-0.283,1.338-0.333,2.654-0.333,3.651c0,3.652,0.928,7.339,2.986,10.615    c3.581,5.683,8.627,8.294,14.925,8.294c3.984,0,7.416-0.8,10.282-2.654l97.854-63.355c5.406-3.503,7.961-8.627,7.961-14.925    c0-6.963-2.951-11.987-8.626-15.59l-97.189-61.7c-3.418-2.172-6.631-3.319-10.282-3.319l-3.645,0.665    c-4.996,0.906-8.562,3.687-11.28,7.961c-1.925,3.028-2.986,6.305-2.986,9.949c0,0.998,0.05,2.308,0.333,3.651    c1.047,4.968,3.693,8.889,7.961,11.613l73.306,46.769l-73.306,46.769C337.396,426.481,334.748,430.402,333.701,435.362z" fill="#ff6347"/>
		<path d="M153.582,391.913l97.189,63.355c2.859,1.868,6.305,2.654,10.282,2.654c6.971,0,12.08-2.569,15.59-8.294    c5.449-8.874,2.661-20.579-5.633-25.872l-73.313-46.769l73.313-46.769c8.293-5.294,10.798-16.828,5.633-25.207    c-5.456-8.867-16.913-11.612-25.207-5.307l-97.854,61.7c-5.683,3.581-8.294,8.627-8.294,15.59    C145.289,383.286,147.956,388.24,153.582,391.913z" fill="#ff6347"/>
	</g>
</g><g></g><g></g><g></g><g></g><g></g><g></g><g></g><g></g><g></g><g></g><g></g><g></g><g></g><g></g><g></g>
</svg>
