<?xml version="1.0" encoding="utf-8"?>
<!-- Generator: Adobe Illustrator 18.0.0, SVG Export Plug-In . SVG Version: 6.00 Build 0)  -->
<!DOCTYPE svg PUBLIC "-//W3C//DTD SVG 1.1//EN" "http://www.w3.org/Graphics/SVG/1.1/DTD/svg11.dtd">
<svg version="1.1" id="Layer_1" xmlns="http://www.w3.org/2000/svg" xmlns:xlink="http://www.w3.org/1999/xlink" x="0px" y="0px"
	 viewBox="0 0 342 342" enable-background="new 0 0 342 342" xml:space="preserve">
<g>
	<path d="M171,60.7c-62.2,0-112.7,50.6-112.7,113.1c0,50,32.3,92.4,77.1,107.3c5.6,1,7.7-2.5,7.7-5.5c0-2.7-0.1-9.8-0.2-19.2
		c-31.3,6.8-38-15.2-38-15.2c-5.1-13.1-12.5-16.5-12.5-16.5c-10.2-7,0.8-6.9,0.8-6.9c11.3,0.8,17.3,11.7,17.3,11.7
		c10.1,17.3,26.4,12.3,32.8,9.4c1-7.3,3.9-12.3,7.2-15.1c-25-2.9-51.3-12.6-51.3-55.9c0-12.4,4.4-22.4,11.6-30.4
		c-1.2-2.9-5-14.4,1.1-29.9c0,0,9.5-3,31,11.6c9-2.5,18.6-3.8,28.2-3.8c9.6,0,19.2,1.3,28.2,3.8c21.5-14.6,30.9-11.6,30.9-11.6
		c6.1,15.6,2.3,27.1,1.1,29.9c7.2,7.9,11.6,18,11.6,30.4c0,43.5-26.3,53-51.4,55.8c4,3.5,7.6,10.4,7.6,20.9c0,15.1-0.1,27.3-0.1,31
		c0,3,2,6.5,7.7,5.4c44.7-15,77-57.4,77-107.3C283.7,111.3,233.2,60.7,171,60.7z"/>
</g>
</svg>
