<?xml version="1.0" encoding="utf-8"?>
<!-- Generator: Adobe Illustrator 18.0.0, SVG Export Plug-In . SVG Version: 6.00 Build 0)  -->
<!DOCTYPE svg PUBLIC "-//W3C//DTD SVG 1.1//EN" "http://www.w3.org/Graphics/SVG/1.1/DTD/svg11.dtd">
<svg version="1.1" id="Layer_1" xmlns="http://www.w3.org/2000/svg" xmlns:xlink="http://www.w3.org/1999/xlink" x="0px" y="0px"
	 viewBox="0 0 342 342" enable-background="new 0 0 342 342" xml:space="preserve">
<g>
	<path d="M114.5,151.5v39c0,0,37.8-0.1,53.2-0.1c-8.3,25.3-21.3,39.1-53.2,39.1C82.2,229.6,57,203.3,57,171s25.2-58.6,57.5-58.6
		c17.1,0,28.1,6,38.2,14.4c8.1-8.1,7.4-9.3,28-28.7c-17.5-15.9-40.7-25.7-66.2-25.7c-54.4,0-98.4,44.1-98.4,98.6
		c0,54.4,44.1,98.6,98.4,98.6c81.2,0,101.1-70.9,94.5-118.1H114.5z"/>
	<polygon points="291.8,153.4 291.8,119.3 267.5,119.3 267.5,153.4 232.4,153.4 232.4,177.8 267.5,177.8 267.5,213 291.8,213 
		291.8,177.8 325.9,177.8 325.9,153.4 	"/>
</g>
</svg>
