<?xml version="1.0" encoding="utf-8"?>
<!-- Generator: Adobe Illustrator 18.0.0, SVG Export Plug-In . SVG Version: 6.00 Build 0)  -->
<!DOCTYPE svg PUBLIC "-//W3C//DTD SVG 1.1//EN" "http://www.w3.org/Graphics/SVG/1.1/DTD/svg11.dtd">
<svg version="1.1" id="Layer_1" xmlns="http://www.w3.org/2000/svg" xmlns:xlink="http://www.w3.org/1999/xlink" x="0px" y="0px"
	 viewBox="0 0 342 342" enable-background="new 0 0 342 342" xml:space="preserve">
<path id="Instagram_1_" d="M256.9,58.3H85.1c-14.8,0-26.8,12-26.8,26.7v171.9c0,14.8,12,26.7,26.8,26.7h171.8
	c14.8,0,26.8-12,26.8-26.7V85.1C283.7,70.3,271.7,58.3,256.9,58.3z M220.3,93.5c0-3.9,3.2-7,7-7h21.1c3.9,0,7,3.2,7,7v21.1
	c0,3.9-3.2,7-7,7h-21.1c-3.9,0-7-3.2-7-7V93.5z M171.3,128c23.9,0,43.3,19.4,43.3,43.2c0,23.9-19.4,43.2-43.3,43.2
	c-23.9,0-43.3-19.4-43.3-43.2C127.9,147.4,147.3,128,171.3,128z M262.5,255.5c0,3.9-3.2,7-7,7h-169c-3.9,0-7-3.2-7-7V149.9h28.2
	c-3.7,5.3-4.9,15.1-4.9,21.4c0,37.7,30.8,68.4,68.5,68.4c37.8,0,68.6-30.7,68.6-68.4c0-6.3-0.9-16-5.4-21.4h28.2V255.5z"/>
</svg>
