<?xml version="1.0" encoding="utf-8"?>
<!-- Generator: Adobe Illustrator 18.0.0, SVG Export Plug-In . SVG Version: 6.00 Build 0)  -->
<!DOCTYPE svg PUBLIC "-//W3C//DTD SVG 1.1//EN" "http://www.w3.org/Graphics/SVG/1.1/DTD/svg11.dtd">
<svg version="1.1" id="Layer_1" xmlns="http://www.w3.org/2000/svg" xmlns:xlink="http://www.w3.org/1999/xlink" x="0px" y="0px"
	 viewBox="0 0 342 342" enable-background="new 0 0 342 342" xml:space="preserve">
<path id="Twitter_1_" d="M277.5,80.6c-8.9,5.4-18.8,9.4-29.4,11.5c-8.4-9.2-20.4-15-33.7-15c-25.5,0-46.2,21.2-46.2,47.4
	c0,3.7,0.4,7.3,1.2,10.8c-38.4-2-72.5-20.8-95.3-49.5c-4,7-6.3,15.2-6.3,23.9c0,16.4,8.2,31,20.6,39.5c-7.6-0.2-14.7-2.4-21-5.9v0.6
	c0,23,15.9,42.1,37.1,46.5c-3.9,1.1-8,1.7-12.2,1.7c-3,0-5.9-0.3-8.7-0.8c5.9,18.8,22.9,32.5,43.2,32.9
	C111,236.7,91,244.3,69.4,244.3c-3.7,0-7.4-0.2-11-0.7c20.5,13.4,44.8,21.3,70.9,21.3c85,0,131.5-72.2,131.5-134.9
	c0-2.1,0-4.1-0.1-6.1c9-6.7,16.9-15,23.1-24.5c-8.3,3.8-17.2,6.3-26.5,7.5C266.7,100.9,274,91.6,277.5,80.6z"/>
</svg>
