<?xml version="1.0" encoding="utf-8"?>
<!-- Generator: Adobe Illustrator 18.0.0, SVG Export Plug-In . SVG Version: 6.00 Build 0)  -->
<!DOCTYPE svg PUBLIC "-//W3C//DTD SVG 1.1//EN" "http://www.w3.org/Graphics/SVG/1.1/DTD/svg11.dtd">
<svg version="1.1" id="Layer_1" xmlns="http://www.w3.org/2000/svg" xmlns:xlink="http://www.w3.org/1999/xlink" x="0px" y="0px"
	 viewBox="0 0 342 342" enable-background="new 0 0 342 342" xml:space="preserve">
<path id="Dribbble_1_" d="M270.5,129c-2.7-6.4-6.1-12.6-10-18.3c-3.8-5.7-8.3-11.1-13.2-16c-4.9-4.9-10.3-9.3-16-13.2
	c-5.8-3.9-11.9-7.2-18.3-10c-6.5-2.7-13.4-4.9-20.3-6.3c-7.1-1.5-14.4-2.2-21.7-2.2c-7.3,0-14.6,0.7-21.8,2.2
	c-6.9,1.4-13.8,3.5-20.3,6.3c-6.4,2.7-12.6,6.1-18.3,10c-5.7,3.9-11.1,8.3-16,13.2c-4.9,4.9-9.3,10.3-13.2,16
	c-3.9,5.8-7.3,11.9-10,18.3c-2.8,6.5-4.9,13.4-6.3,20.3c-1.4,7.1-2.2,14.4-2.2,21.7c0,7.3,0.7,14.7,2.2,21.8
	c1.4,6.9,3.5,13.8,6.3,20.3c2.7,6.4,6.1,12.6,10,18.4c3.9,5.7,8.3,11.1,13.2,16c4.9,4.9,10.3,9.3,16,13.2c5.8,3.9,11.9,7.2,18.3,10
	c6.5,2.8,13.4,4.9,20.3,6.3c7.1,1.5,14.4,2.2,21.8,2.2c7.3,0,14.6-0.7,21.7-2.2c6.9-1.4,13.8-3.5,20.3-6.3c6.4-2.7,12.6-6.1,18.3-10
	c5.7-3.9,11.1-8.3,16-13.2c4.9-4.9,9.3-10.3,13.2-16c3.9-5.8,7.3-12,10-18.4c2.8-6.5,4.9-13.3,6.3-20.3c1.4-7.1,2.2-14.4,2.2-21.8
	c0-7.3-0.7-14.6-2.2-21.7C275.4,142.3,273.2,135.5,270.5,129z M171,78.8c23.3,0,44.7,8.7,60.9,23c-0.2,0.3-13.4,20.3-48.2,33.4
	c-15.8-29-33.1-52-34.5-53.8C156.2,79.7,163.5,78.8,171,78.8z M148.9,81.5C148.9,81.5,148.9,81.5,148.9,81.5c0,0-0.1,0.1-0.3,0.1
	C148.7,81.5,148.8,81.5,148.9,81.5z M131.7,87.6c1.2,1.6,18.3,24.8,34.2,53.1C121.6,152.5,83.2,152,80.8,152
	C86.7,123.4,105.9,99.8,131.7,87.6z M102.4,232.6c-14.7-16.3-23.6-37.9-23.6-61.6c0-1,0.1-1.9,0.1-2.9c1.6,0,47.2,1.1,94.7-13.1
	c2.6,5.2,5.2,10.4,7.5,15.7c-1.2,0.3-2.4,0.7-3.6,1.1C127.6,187.8,102.4,232.6,102.4,232.6C102.4,232.6,102.4,232.6,102.4,232.6z
	 M171,263.2c-21.8,0-41.8-7.6-57.6-20.2c-0.3-0.3-0.7-0.6-1.2-0.9c0.5,0.4,0.9,0.7,1.2,0.9c0.5,0.4,0.9,0.7,0.9,0.7
	s17.7-38.5,72.4-57.6c0.2-0.1,0.4-0.1,0.6-0.2c13,33.7,18.3,61.9,19.7,70C195.9,260.6,183.8,263.2,171,263.2z M222.5,247.5
	c-0.9-5.6-5.9-32.6-18-65.9c29.8-4.8,55.6,3.4,57.5,4C258,211.3,243.2,233.5,222.5,247.5z M199,167.1c-0.7-1.6-1.3-3.2-2-4.7
	c-1.9-4.5-4-9-6.1-13.4c36.4-14.9,51.2-36.2,51.4-36.5c12.9,15.7,20.8,35.8,21,57.6C261.9,169.8,230.7,163.1,199,167.1z"/>
</svg>
