<?xml version="1.0" encoding="utf-8"?>
<!-- Generator: Adobe Illustrator 18.0.0, SVG Export Plug-In . SVG Version: 6.00 Build 0)  -->
<!DOCTYPE svg PUBLIC "-//W3C//DTD SVG 1.1//EN" "http://www.w3.org/Graphics/SVG/1.1/DTD/svg11.dtd">
<svg version="1.1" id="Layer_1" xmlns="http://www.w3.org/2000/svg" xmlns:xlink="http://www.w3.org/1999/xlink" x="0px" y="0px"
	 viewBox="0 0 342 342" enable-background="new 0 0 342 342" xml:space="preserve">
<path id="Facebook_1_" d="M283.7,271.2c0,6.9-5.6,12.4-12.4,12.4h-57.4v-87.3h29.3l4.4-34h-33.7v-21.7c0-9.8,2.7-16.6,16.9-16.6
	l18,0V93.7c-3.1-0.4-13.8-1.3-26.2-1.3c-26,0-43.7,15.8-43.7,45v25.1h-29.4v34h29.4v87.3H70.8c-6.9,0-12.4-5.6-12.4-12.4V70.8
	c0-6.9,5.6-12.4,12.4-12.4h200.5c6.9,0,12.4,5.6,12.4,12.4V271.2z"/>
</svg>
