<?xml version="1.0" encoding="utf-8"?>
<!-- Generator: Adobe Illustrator 18.0.0, SVG Export Plug-In . SVG Version: 6.00 Build 0)  -->
<!DOCTYPE svg PUBLIC "-//W3C//DTD SVG 1.1//EN" "http://www.w3.org/Graphics/SVG/1.1/DTD/svg11.dtd">
<svg version="1.1" id="Layer_1" xmlns="http://www.w3.org/2000/svg" xmlns:xlink="http://www.w3.org/1999/xlink" x="0px" y="0px"
	 viewBox="0 0 342 342" enable-background="new 0 0 342 342" xml:space="preserve">
<g id="Vimeo_1_">
	<path d="M250.8,74.8c-31.3-1-52.5,16.3-63.7,52c5.7-2.4,11.3-3.5,16.7-3.5c11.4,0,16.5,6.3,15.1,19c-0.7,7.7-5.7,18.8-15.1,33.5
		c-9.4,14.6-16.5,22-21.2,22c-6.1,0-11.6-11.3-16.7-34c-1.7-6.7-4.7-23.7-9.1-51c-4.1-25.3-14.9-37.2-32.3-35.5
		c-7.4,0.7-18.5,7.3-33.3,20c-10.8,9.7-21.7,19.3-32.8,29l10.6,13.5c10.1-7,16-10.5,17.7-10.5c7.7,0,15,12,21.7,36
		c6.1,22,12.1,44,18.2,66c9.1,24,20.2,36,33.3,36c21.2,0,47.2-19.7,77.8-59c29.6-37.6,44.9-67.3,45.9-89
		C284.9,90.3,274,75.4,250.8,74.8z"/>
</g>
</svg>
