<?xml version="1.0" encoding="utf-8"?>
<!-- Generator: Adobe Illustrator 18.0.0, SVG Export Plug-In . SVG Version: 6.00 Build 0)  -->
<!DOCTYPE svg PUBLIC "-//W3C//DTD SVG 1.1//EN" "http://www.w3.org/Graphics/SVG/1.1/DTD/svg11.dtd">
<svg version="1.1" id="Layer_1" xmlns="http://www.w3.org/2000/svg" xmlns:xlink="http://www.w3.org/1999/xlink" x="0px" y="0px"
	 viewBox="0 0 342 342" enable-background="new 0 0 342 342" xml:space="preserve">
<g id="Youtube_1_">
	<path d="M272.5,103.1c-8.6-9-18.2-9.1-22.6-9.6c-31.5-2.3-78.8-2.3-78.8-2.3H171c0,0-47.3,0-78.8,2.3c-4.4,0.5-14,0.6-22.6,9.6
		c-6.8,6.9-9,22.5-9,22.5s-2.3,18.4-2.3,36.7v17.2c0,18.4,2.3,36.7,2.3,36.7s2.2,15.6,9,22.5c8.6,9,19.8,8.8,24.9,9.7
		c18,1.7,76.6,2.3,76.6,2.3s47.4-0.1,78.9-2.4c4.4-0.5,14-0.6,22.6-9.6c6.8-6.9,9-22.5,9-22.5s2.3-18.4,2.3-36.7v-17.2
		c0-18.4-2.3-36.7-2.3-36.7S279.2,110,272.5,103.1z M147.7,200.4l0-63.8l60.9,32L147.7,200.4z"/>
</g>
</svg>
