<?xml version="1.0" encoding="utf-8"?>
<!-- Generator: Adobe Illustrator 18.0.0, SVG Export Plug-In . SVG Version: 6.00 Build 0)  -->
<!DOCTYPE svg PUBLIC "-//W3C//DTD SVG 1.1//EN" "http://www.w3.org/Graphics/SVG/1.1/DTD/svg11.dtd">
<svg version="1.1" id="Layer_1" xmlns="http://www.w3.org/2000/svg" xmlns:xlink="http://www.w3.org/1999/xlink" x="0px" y="0px"
	 viewBox="0 0 720 720" enable-background="new 0 0 720 720" xml:space="preserve">
<circle fill="#E1FCEC" cx="360" cy="360" r="360.1"/>
<g>
	<g>
		<path fill="#EF4136" d="M547.9,554.3V176.8L364.7,482.7c0,0-3.5-2.5-4.7-2.5s-4.7,2.5-4.7,2.5L172.1,176.8v377.5h-11.6v-403h9.4
			L360,468.9l190.1-317.5h9.4v403.2h-11.6V554.3z"/>
	</g>
	<g>
		<path fill="#EF4136" d="M360,554.3c-23.2,0-42-18.7-42-42s18.7-42,42-42s42,18.7,42,42S383.2,554.3,360,554.3z M360,482.7
			c-16.3,0-29.7,13.3-29.7,29.7c0,16.3,13.3,29.7,29.7,29.7s29.7-13.3,29.7-29.7C389.7,496.1,376.3,482.7,360,482.7z"/>
	</g>
</g>
</svg>
