<?xml version="1.0" encoding="utf-8"?>
<!-- Generator: Adobe Illustrator 18.0.0, SVG Export Plug-In . SVG Version: 6.00 Build 0)  -->
<!DOCTYPE svg PUBLIC "-//W3C//DTD SVG 1.1//EN" "http://www.w3.org/Graphics/SVG/1.1/DTD/svg11.dtd">
<svg version="1.1" id="Layer_1" xmlns="http://www.w3.org/2000/svg" xmlns:xlink="http://www.w3.org/1999/xlink" x="0px" y="0px"
	 viewBox="0 0 342 342" enable-background="new 0 0 342 342" xml:space="preserve">
<g id="Behance_1_">
	<path d="M151,164.2c4.7-2.4,8.2-5,10.6-7.8c4.3-5.1,6.4-11.9,6.4-20.2c0-8.1-2.1-15.1-6.4-21c-7.1-9.5-19.1-14.4-36.1-14.6H58.3
		V238h62.7c7.1,0,13.6-0.6,19.7-1.8c6.1-1.3,11.3-3.5,15.7-6.9c3.9-2.9,7.2-6.5,9.9-10.8c4.1-6.5,6.2-13.8,6.2-21.9
		c0-7.9-1.8-14.6-5.4-20.1C163.5,170.8,158.1,166.8,151,164.2z M86.1,124.4h30.3c6.7,0,12.1,0.7,16.5,2.1c5,2.1,7.5,6.3,7.5,12.7
		c0,5.8-1.9,9.8-5.7,12.1c-3.8,2.3-8.7,3.4-14.7,3.4H86.1V124.4z M134,211.7c-3.4,1.6-8.1,2.4-14.1,2.4H86.1v-36.6h34.3
		c6,0.1,10.6,0.8,13.9,2.3c5.9,2.7,8.9,7.6,8.9,14.7C143.2,203,140.1,208.7,134,211.7z"/>
	<rect x="202.3" y="107" width="59.7" height="17.1"/>
	<path d="M274.5,153.5c-4.7-6.8-10.6-11.9-17.8-15c-7.2-3.2-15.2-4.8-24.2-4.8c-15.1,0-27.3,4.7-36.8,14.1
		c-9.4,9.4-14.2,22.9-14.2,40.5c0,18.8,5.2,32.3,15.7,40.7c10.5,8.3,22.6,12.5,36.3,12.5c16.6,0,29.5-4.9,38.7-14.8
		c5.9-6.2,9.2-12.4,10-18.4h-27.5c-1.6,3-3.4,5.3-5.6,7c-3.8,3.1-8.8,4.7-14.9,4.7c-5.8,0-10.7-1.3-14.9-3.8
		c-6.8-4.1-10.3-11.2-10.8-21.4h75c0.1-8.8-0.2-15.5-0.9-20.2C281.5,166.5,278.8,159.5,274.5,153.5z M209.3,177.1
		c1-6.6,3.4-11.9,7.2-15.7c3.8-3.9,9.2-5.8,16.1-5.8c6.4,0,11.7,1.8,16,5.5c4.3,3.7,6.7,9,7.2,16.1H209.3z"/>
</g>
</svg>
