<?xml version="1.0" encoding="utf-8"?>
<!-- Generator: Adobe Illustrator 18.0.0, SVG Export Plug-In . SVG Version: 6.00 Build 0)  -->
<!DOCTYPE svg PUBLIC "-//W3C//DTD SVG 1.1//EN" "http://www.w3.org/Graphics/SVG/1.1/DTD/svg11.dtd">
<svg version="1.1" id="Layer_1" xmlns="http://www.w3.org/2000/svg" xmlns:xlink="http://www.w3.org/1999/xlink" x="0px" y="0px"
	 viewBox="0 0 342 342" enable-background="new 0 0 342 342" xml:space="preserve">
<path id="Pinterest_2_" d="M171,58.3c-62.2,0-112.7,50.4-112.7,112.7c0,46.1,27.7,85.8,67.5,103.2c-0.3-7.9-0.1-17.3,1.9-25.9
	c2.2-9.1,14.5-61.4,14.5-61.4s-3.6-7.2-3.6-17.8c0-16.7,9.7-29.2,21.7-29.2c10.2,0,15.2,7.7,15.2,16.9c0,10.3-6.6,25.7-10,40
	c-2.8,12,6,21.7,17.8,21.7c21.3,0,35.7-27.4,35.7-59.9c0-24.7-16.6-43.2-46.9-43.2c-34.2,0-55.5,25.5-55.5,53.9
	c0,9.8,2.9,16.7,7.4,22.1c2.1,2.5,2.4,3.5,1.6,6.3c-0.5,2.1-1.8,7.1-2.3,9c-0.8,2.8-3.1,3.9-5.6,2.8c-15.8-6.4-23.1-23.7-23.1-43
	c0-32,27-70.4,80.5-70.4c43,0,71.3,31.2,71.3,64.6c0,44.2-24.6,77.2-60.8,77.2c-12.2,0-23.6-6.6-27.5-14c0,0-6.5,26-7.9,31
	c-2.4,8.7-7.1,17.4-11.3,24.1c10.1,3,20.8,4.6,31.9,4.6c62.2,0,112.7-50.4,112.7-112.7C283.7,108.8,233.2,58.3,171,58.3z"/>
</svg>
