<?xml version="1.0" encoding="iso-8859-1"?>
<!-- Generator: Adobe Illustrator 16.0.0, SVG Export Plug-In . SVG Version: 6.00 Build 0)  -->
<!DOCTYPE svg PUBLIC "-//W3C//DTD SVG 1.1//EN" "http://www.w3.org/Graphics/SVG/1.1/DTD/svg11.dtd">
<svg xmlns="http://www.w3.org/2000/svg" xmlns:xlink="http://www.w3.org/1999/xlink" version="1.1" id="Capa_1" x="0px" y="0px" width="512px" height="512px" viewBox="0 0 959.826 959.826" style="enable-background:new 0 0 959.826 959.826;" xml:space="preserve">
<g>
	<path d="M866.058,75.973H363.994V18.917C363.994,8.469,355.525,0,345.077,0H182.918c-10.447,0-18.917,8.469-18.917,18.917v57.056   H93.77c-10.448,0-18.917,8.469-18.917,18.917v454.766c0,10.447,8.469,18.916,18.917,18.916h213.626h345.035h213.625   c10.449,0,18.918-8.469,18.918-18.916V94.89C884.974,84.442,876.505,75.973,866.058,75.973z M478.753,483.775   c-65.973,0-122.63-39.857-147.228-96.8c-8.414-19.477-13.085-40.948-13.085-63.513c0-88.538,71.774-160.313,160.312-160.313   c88.539,0,160.314,71.775,160.314,160.313c0,21.815-4.365,42.609-12.258,61.566C602.671,443.009,545.476,483.775,478.753,483.775z" fill="#ff6347"/>
	<path d="M623.237,617.549c6.219-7.518,11.852-15.535,16.844-23.977H319.747c4.992,8.441,10.624,16.459,16.844,23.977   L98.374,943.932c-4.823,6.605-0.103,15.895,8.077,15.895h59.87c6.415,0,12.441-3.078,16.202-8.275l209.025-288.834   c15.98,8.645,33.37,15.014,51.735,18.684v257.393c0,11.047,8.954,20,20,20h30.937c11.047,0,20-8.953,20-20V681.846   c19.223-3.586,37.406-10.119,54.057-19.129l209.027,288.836c3.762,5.195,9.787,8.273,16.201,8.273h59.871   c8.18,0,12.9-9.287,8.076-15.895L623.237,617.549z" fill="#ff6347"/>
</g><g></g><g></g><g></g><g></g><g></g><g></g><g></g><g></g><g></g><g></g><g></g><g></g><g></g><g></g><g></g>
</svg>
