<?xml version="1.0" encoding="iso-8859-1"?>
<!-- Generator: Adobe Illustrator 18.0.0, SVG Export Plug-In . SVG Version: 6.00 Build 0)  -->
<!DOCTYPE svg PUBLIC "-//W3C//DTD SVG 1.1//EN" "http://www.w3.org/Graphics/SVG/1.1/DTD/svg11.dtd">
<svg xmlns="http://www.w3.org/2000/svg" xmlns:xlink="http://www.w3.org/1999/xlink" version="1.1" id="Capa_1" x="0px" y="0px" viewBox="0 0 460.94 460.94" style="enable-background:new 0 0 460.94 460.94;" xml:space="preserve" width="512px" height="512px">
<path d="M460.791,405.148l-50.215-221c-0.621-2.732-3.049-4.67-5.851-4.67h-43.754l48.841-99.472  c1.759-3.583,2.018-7.637,0.729-11.415s-3.973-6.828-7.556-8.587l-20.394-10.013c-7.398-3.633-16.37-0.569-20.001,6.828  l-60.227,122.659H67.746c-2.802,0-5.23,1.938-5.851,4.67l-21.138,93.03c-8.74-1.196-16.592-5.761-22.01-12.951  c-6.358-8.438-8.335-19.102-5.423-29.258l25.009-87.224c4.077-14.222,17.258-24.155,32.053-24.155h156.943  c19.337,0,36.564-12.282,42.868-30.563l2.458-7.128c1.08-3.133-0.583-6.548-3.716-7.628c-3.133-1.08-6.548,0.583-7.628,3.716  l-2.458,7.128c-4.635,13.442-17.303,22.474-31.523,22.474H70.385c-20.12,0-38.044,13.507-43.588,32.847L1.788,231.662  c-3.96,13.811-1.272,28.313,7.375,39.787c7.16,9.501,17.445,15.634,28.927,17.466L11.68,405.148  c-0.404,1.78,0.023,3.646,1.162,5.073c1.138,1.426,2.864,2.257,4.689,2.257H454.94c1.825,0,3.551-0.831,4.689-2.257  C460.767,408.795,461.195,406.928,460.791,405.148z M96.954,317.478H43.906l14.769-65h49.4L96.954,317.478z M127.094,212.478H286.16  l-30.339,61.79c-3.097,6.307-3.552,13.442-1.282,20.091c1.543,4.52,4.222,8.445,7.759,11.469l-4.88,9.939  c-1.46,2.975-0.233,6.57,2.741,8.03c0.851,0.418,1.752,0.616,2.64,0.616c2.216,0,4.347-1.233,5.39-3.357l4.764-9.703  c2.118,0.543,4.282,0.826,6.456,0.826c2.861,0,5.734-0.473,8.521-1.424c6.649-2.27,12.017-6.993,15.113-13.3l41.724-84.977h33.792  l28.899,158H100.06L127.094,212.478z M373.361,62.108c0.511-1.041,1.56-1.646,2.648-1.646c0.435,0,0.877,0.097,1.293,0.301  l20.394,10.013c0.953,0.468,1.342,1.261,1.489,1.692s0.324,1.296-0.144,2.249L292.272,292.165c-1.684,3.43-4.603,5.998-8.219,7.232  c-3.617,1.234-7.497,0.986-10.925-0.697c-3.43-1.684-5.999-4.603-7.233-8.219s-0.987-7.496,0.697-10.925L373.361,62.108z   M72.535,191.478h223.936l-4.419,9H122.033c-2.923,0-5.421,2.107-5.914,4.988l-5.991,35.012H61.402L72.535,191.478z M25.047,400.478  l16.132-71h53.721l-7.869,45.988c-0.298,1.743,0.188,3.528,1.328,4.88c1.14,1.352,2.818,2.132,4.586,2.132h321.71  c1.78,0,3.469-0.791,4.608-2.158c1.14-1.368,1.614-3.17,1.293-4.922l-31.094-170c-0.521-2.85-3.004-4.92-5.902-4.92H350.66l4.419-9  h44.856l47.489,209H25.047z" fill="#ff6347"/>
<g></g><g></g><g></g><g></g><g></g><g></g><g></g><g></g><g></g><g></g><g></g><g></g><g></g><g></g><g></g>
</svg>
